<?xml version="1.0" encoding="UTF-8"?>
<svg width="54px" height="54px" viewBox="0 0 54 54" version="1.1" xmlns="http://www.w3.org/2000/svg" xmlns:xlink="http://www.w3.org/1999/xlink">
    <!-- Generator: Sketch 52.2 (67145) - http://www.bohemiancoding.com/sketch -->
    <title>Company-top</title>
    <desc>Created with Sketch.</desc>
    <g id="Company-top" stroke="none" stroke-width="1" fill="none" fill-rule="evenodd">
        <g id="Group-38" fill="#51A500" fill-rule="nonzero">
            <g id="Group-34" transform="translate(5.000000, 5.000000)">
                <path d="M25,42 L25,4 C25,2.8954305 24.1045695,2 23,2 L4,2 C2.8954305,2 2,2.8954305 2,4 L2,42 L25,42 Z M4,0 L23,0 C25.209139,-4.05812251e-16 27,1.790861 27,4 L27,43 C27,43.5522847 26.5522847,44 26,44 L2,44 C0.8954305,44 1.3527075e-16,43.1045695 0,42 L0,4 C-2.705415e-16,1.790861 1.790861,4.05812251e-16 4,0 Z" id="Rectangle-13"></path>
                <path d="M10.5,42 L16.5,42 L16.5,34 C16.5,32.3431458 15.1568542,31 13.5,31 C11.8431458,31 10.5,32.3431458 10.5,34 L10.5,42 Z M13.5,29 C16.2614237,29 18.5,31.2385763 18.5,34 L18.5,44 L8.5,44 L8.5,34 C8.5,31.2385763 10.7385763,29 13.5,29 Z" id="Rectangle-18"></path>
                <path d="M27,14 L27,42 L40,42 C41.1045695,42 42,41.1045695 42,40 L42,16 C42,14.8954305 41.1045695,14 40,14 L27,14 Z M26,12 L40,12 C42.209139,12 44,13.790861 44,16 L44,40 C44,42.209139 42.209139,44 40,44 L26,44 C25.4477153,44 25,43.5522847 25,43 L25,13 C25,12.4477153 25.4477153,12 26,12 Z" id="Rectangle-17"></path>
                <path d="M8,14 C7.44771525,14 7,13.5522847 7,13 C7,12.4477153 7.44771525,12 8,12 L19,12 C19.5522847,12 20,12.4477153 20,13 C20,13.5522847 19.5522847,14 19,14 L8,14 Z" id="Path-79"></path>
                <path d="M8,23 C7.44771525,23 7,22.5522847 7,22 C7,21.4477153 7.44771525,21 8,21 L19,21 C19.5522847,21 20,21.4477153 20,22 C20,22.5522847 19.5522847,23 19,23 L8,23 Z" id="Path-79"></path>
                <path d="M30,22 C29.4477153,22 29,21.5522847 29,21 C29,20.4477153 29.4477153,20 30,20 L37,20 C37.5522847,20 38,20.4477153 38,21 C38,21.5522847 37.5522847,22 37,22 L30,22 Z" id="Path-80"></path>
                <path d="M30,28 C29.4477153,28 29,27.5522847 29,27 C29,26.4477153 29.4477153,26 30,26 L37,26 C37.5522847,26 38,26.4477153 38,27 C38,27.5522847 37.5522847,28 37,28 L30,28 Z" id="Path-80"></path>
                <path d="M30,34 C29.4477153,34 29,33.5522847 29,33 C29,32.4477153 29.4477153,32 30,32 L37,32 C37.5522847,32 38,32.4477153 38,33 C38,33.5522847 37.5522847,34 37,34 L30,34 Z" id="Path-80"></path>
            </g>
        </g>
    </g>
</svg>