<?xml version="1.0" standalone="no"?><!DOCTYPE svg PUBLIC "-//W3C//DTD SVG 1.1//EN" "http://www.w3.org/Graphics/SVG/1.1/DTD/svg11.dtd"><svg t="1543560135682" class="icon" style="" viewBox="0 0 1024 1024" version="1.1" xmlns="http://www.w3.org/2000/svg" p-id="12125" xmlns:xlink="http://www.w3.org/1999/xlink" width="200" height="200"><defs><style type="text/css"></style></defs><path d="M289.797651 240.242253A45.208434 45.208434 0 1 0 353.698033 304.287534a139.827367 139.827367 0 1 1 197.786897 197.641998l-8.549031 8.54903a90.706665 90.706665 0 0 1 63.900382 64.045281l8.404132-8.54903a231.838121 231.838121 0 0 0 49.845196-74.912693 229.51974 229.51974 0 0 0 0-175.762276 228.795246 228.795246 0 0 0-124.757889-124.757888A230.67893 230.67893 0 0 0 289.797651 240.242253z m142.435546 380.939012L279.364936 773.904627a45.208434 45.208434 0 0 0 63.900382 63.900382l152.868261-152.723362a90.416867 90.416867 0 0 1-63.900382-63.900382z" fill="#D84D32" p-id="12126"></path><path d="M567.423801 645.669167a67.81265 67.81265 0 1 0-95.923023 0 67.81265 67.81265 0 0 0 95.923023 0zM519.317391 507.145889a90.271968 90.271968 0 0 0-90.271969 90.271969l-129.104853-33.32673a22.749116 22.749116 0 0 1-18.836847-22.314419c0-44.628838 30.428753-91.141361 60.857506-121.570115s76.796378-60.857507 121.570115-60.857507a22.604217 22.604217 0 0 1 22.314419 18.836848l33.471629 128.959954z m0 180.833735a90.416867 90.416867 0 0 0 90.271968-90.271969L738.98401 631.324183a22.604217 22.604217 0 0 1 18.836848 22.314419c0 44.628838-30.428753 90.996462-60.857507 121.570115s-76.941276 60.857507-121.425216 60.857506a22.604217 22.604217 0 0 1-22.314419-18.836847z" fill="#3CA3A9" p-id="12127"></path></svg>