<?xml version="1.0" encoding="UTF-8"?>
<svg width="54px" height="54px" viewBox="0 0 54 54" version="1.1" xmlns="http://www.w3.org/2000/svg" xmlns:xlink="http://www.w3.org/1999/xlink">
    <!-- Generator: Sketch 52.2 (67145) - http://www.bohemiancoding.com/sketch -->
    <title>Organization-top</title>
    <desc>Created with Sketch.</desc>
    <g id="Organization-top" stroke="none" stroke-width="1" fill="none" fill-rule="evenodd">
        <g id="organization-top" fill="#51A500" fill-rule="nonzero">
            <path d="M23.5,38 C22.9477153,38 22.5,38.4477153 22.5,39 L22.5,46 C22.5,46.5522847 22.9477153,47 23.5,47 L30.5,47 C31.0522847,47 31.5,46.5522847 31.5,46 L31.5,39 C31.5,38.4477153 31.0522847,38 30.5,38 L23.5,38 Z M23.5,36 L30.5,36 C32.1568542,36 33.5,37.3431458 33.5,39 L33.5,46 C33.5,47.6568542 32.1568542,49 30.5,49 L23.5,49 C21.8431458,49 20.5,47.6568542 20.5,46 L20.5,39 C20.5,37.3431458 21.8431458,36 23.5,36 Z" id="Rectangle-2"></path>
            <path d="M40.5,38 C39.9477153,38 39.5,38.4477153 39.5,39 L39.5,46 C39.5,46.5522847 39.9477153,47 40.5,47 L47.5,47 C48.0522847,47 48.5,46.5522847 48.5,46 L48.5,39 C48.5,38.4477153 48.0522847,38 47.5,38 L40.5,38 Z M40.5,36 L47.5,36 C49.1568542,36 50.5,37.3431458 50.5,39 L50.5,46 C50.5,47.6568542 49.1568542,49 47.5,49 L40.5,49 C38.8431458,49 37.5,47.6568542 37.5,46 L37.5,39 C37.5,37.3431458 38.8431458,36 40.5,36 Z" id="Rectangle-2"></path>
            <path d="M22,7 C21.4477153,7 21,7.44771525 21,8 L21,17 C21,17.5522847 21.4477153,18 22,18 L32,18 C32.5522847,18 33,17.5522847 33,17 L33,8 C33,7.44771525 32.5522847,7 32,7 L22,7 Z M22,5 L32,5 C33.6568542,5 35,6.34314575 35,8 L35,17 C35,18.6568542 33.6568542,20 32,20 L22,20 C20.3431458,20 19,18.6568542 19,17 L19,8 C19,6.34314575 20.3431458,5 22,5 Z" id="Rectangle-2"></path>
            <path d="M6.5,38 C5.94771525,38 5.5,38.4477153 5.5,39 L5.5,46 C5.5,46.5522847 5.94771525,47 6.5,47 L13.5,47 C14.0522847,47 14.5,46.5522847 14.5,46 L14.5,39 C14.5,38.4477153 14.0522847,38 13.5,38 L6.5,38 Z M6.5,36 L13.5,36 C15.1568542,36 16.5,37.3431458 16.5,39 L16.5,46 C16.5,47.6568542 15.1568542,49 13.5,49 L6.5,49 C4.84314575,49 3.5,47.6568542 3.5,46 L3.5,39 C3.5,37.3431458 4.84314575,36 6.5,36 Z" id="Rectangle-2-Copy"></path>
            <path d="M11,36 L9,36 L9,29 C9,27.3431458 10.3431458,26 12,26 L42,26 C43.6568542,26 45,27.3431458 45,29 L45,36 L43,36 L43,29 C43,28.4477153 42.5522847,28 42,28 L12,28 C11.4477153,28 11,28.4477153 11,29 L11,36 Z" id="Rectangle-23"></path>
            <polygon id="Stroke-13" points="26 18.8919303 28 18.8919303 28 38 26 38"></polygon>
        </g>
    </g>
</svg>