<?xml version="1.0" encoding="UTF-8"?>
<svg width="54px" height="54px" viewBox="0 0 54 54" version="1.1" xmlns="http://www.w3.org/2000/svg" xmlns:xlink="http://www.w3.org/1999/xlink">
    <!-- Generator: Sketch 52.2 (67145) - http://www.bohemiancoding.com/sketch -->
    <title>Organization information-top</title>
    <desc>Created with Sketch.</desc>
    <g id="Organization-information-top" stroke="none" stroke-width="1" fill="none" fill-rule="evenodd">
        <g id="Group-55" fill="#51A500" fill-rule="nonzero">
            <g id="Group-19" transform="translate(6.000000, 6.000000)">
                <path d="M27,7 C27.5522847,7 28,7.44771525 28,8 C28,8.55228475 27.5522847,9 27,9 L7,9 C6.44771525,9 6,8.55228475 6,8 C6,7.44771525 6.44771525,7 7,7 L27,7 Z" id="Stroke-1"></path>
                <path d="M18,12 C18.5522847,12 19,12.4477153 19,13 C19,13.5522847 18.5522847,14 18,14 L7,14 C6.44771525,14 6,13.5522847 6,13 C6,12.4477153 6.44771525,12 7,12 L18,12 Z" id="Stroke-2"></path>
                <polygon id="Stroke-3" points="9 37 9 35 13 35 13 37"></polygon>
                <polygon id="Stroke-3" points="29 37 29 35 33 35 33 37"></polygon>
                <path d="M7.78630898,39.5 C8.45149732,39.5 9.00041282,38.9517454 9.00041282,38.288562 L9.00041282,33.711438 C9.00041282,33.047931 8.45172673,32.5 7.78630898,32.5 L2.21451666,32.5 C1.54845069,32.5 1.00041282,33.0474724 1.00041282,33.711438 L1.00041282,38.288562 C1.00041282,38.952204 1.54868005,39.5 2.21451666,39.5 L7.78630898,39.5 Z M7.78630898,41.5 L2.21451666,41.5 C0.444495354,41.5 -0.999587179,40.0571587 -0.999587179,38.288562 L-0.999587179,33.711438 C-0.999587179,31.9424405 0.444343101,30.5 2.21451666,30.5 L7.78630898,30.5 C9.55568014,30.5 11.0004128,31.9427445 11.0004128,33.711438 L11.0004128,38.288562 C11.0004128,40.0568546 9.55552781,41.5 7.78630898,41.5 Z" id="Stroke-6"></path>
                <path d="M25.6213737,41 C26.3882033,41 27,40.4180314 27,39.7373433 L27,32.2626567 C27,31.5819686 26.3882033,31 25.6213737,31 L16.3786263,31 C15.6121499,31 15,31.5822043 15,32.2626567 L15,39.7373433 C15,40.4177957 15.6121499,41 16.3786263,41 L25.6213737,41 Z M25.6213737,43 L16.3786263,43 C14.529393,43 13,41.5454232 13,39.7373433 L13,32.2626567 C13,30.4545768 14.529393,29 16.3786263,29 L25.6213737,29 C27.471033,29 29,30.4544225 29,32.2626567 L29,39.7373433 C29,41.5455775 27.471033,43 25.6213737,43 Z" id="Stroke-10"></path>
                <path d="M39.7858962,39.5 C40.4510845,39.5 41,38.9517454 41,38.288562 L41,33.711438 C41,33.047931 40.4513139,32.5 39.7858962,32.5 L34.2141038,32.5 C33.5480379,32.5 33,33.0474724 33,33.711438 L33,38.288562 C33,38.952204 33.5482672,39.5 34.2141038,39.5 L39.7858962,39.5 Z M39.7858962,41.5 L34.2141038,41.5 C32.4440825,41.5 31,40.0571587 31,38.288562 L31,33.711438 C31,31.9424405 32.4439303,30.5 34.2141038,30.5 L39.7858962,30.5 C41.5552673,30.5 43,31.9427445 43,33.711438 L43,38.288562 C43,40.0568546 41.555115,41.5 39.7858962,41.5 Z" id="Stroke-14"></path>
                <path d="M23.6563385,20.4631245 C23.8398964,20.1746763 24.1580996,20 24.5,20 L40,20 C40.5522847,20 41,19.5522847 41,19 L41,2 C41,1.44771525 40.5522847,1 40,1 L2,1 C1.44771525,1 1,1.44771525 1,2 L1,19 C1,19.5522847 1.44771525,20 2,20 L17.5,20 C17.8419004,20 18.1601036,20.1746763 18.3436615,20.4631245 L21,24.6373707 L23.6563385,20.4631245 Z M2,22 C0.343145751,22 -1,20.6568542 -1,19 L-1,2 C-1,0.343145751 0.343145751,-1 2,-1 L40,-1 C41.6568542,-1 43,0.343145751 43,2 L43,19 C43,20.6568542 41.6568542,22 40,22 L25.0489459,22 L21.8436615,27.0368755 C21.4507074,27.6543748 20.5492926,27.6543748 20.1563385,27.0368755 L16.9510541,22 L2,22 Z" id="Rectangle-24"></path>
            </g>
        </g>
    </g>
</svg>