<?xml version="1.0" encoding="UTF-8"?>
<svg width="54px" height="54px" viewBox="0 0 54 54" version="1.1" xmlns="http://www.w3.org/2000/svg" xmlns:xlink="http://www.w3.org/1999/xlink">
    <!-- Generator: Sketch 52.2 (67145) - http://www.bohemiancoding.com/sketch -->
    <title>Personnel information-top</title>
    <desc>Created with Sketch.</desc>
    <g id="Personnel-information-top" stroke="none" stroke-width="1" fill="none" fill-rule="evenodd">
        <g id="Group-56" fill="#53A600" fill-rule="nonzero">
            <path d="M26.9779511,27.4974842 C32.8689698,27.4974842 37.6459021,22.6966929 37.6459021,16.7662618 C37.6459021,10.8358307 32.8689698,6.03503945 26.9779511,6.03503945 C21.0869324,6.03503945 16.31,10.8358307 16.31,16.7662618 C16.31,22.6966929 21.0869324,27.4974842 26.9779511,27.4974842 Z M26.9779511,29.4974842 C19.9801262,29.4974842 14.31,23.799038 14.31,16.7662618 C14.31,9.73348561 19.9801262,4.03503945 26.9779511,4.03503945 C33.975776,4.03503945 39.6459021,9.73348561 39.6459021,16.7662618 C39.6459021,23.799038 33.975776,29.4974842 26.9779511,29.4974842 Z" id="Shape"></path>
            <path d="M22.0916768,20.3377585 C21.738197,19.9134114 21.7956462,19.2828581 22.2199933,18.9293783 C22.6443404,18.5758985 23.2748937,18.6333477 23.6283736,19.0576948 C24.4527363,20.0473296 25.6641021,20.6285708 26.9714864,20.6285708 C28.2952278,20.6285708 29.5202642,20.0325466 30.3443867,19.0215467 C30.6933377,18.5934677 31.323245,18.5293218 31.751324,18.8782729 C32.179403,19.227224 32.2435488,19.8571313 31.8945978,20.2852102 C30.6949204,21.7569257 28.9033874,22.6285708 26.9714864,22.6285708 C25.0634945,22.6285708 23.2917764,21.7784597 22.0916768,20.3377585 Z" id="Oval-4"></path>
            <path d="M8.43340487,46.0400528 C8.69347248,46.6259013 9.53174652,47.0425147 11.600099,47.0425147 L43.5698667,47.0425147 C45.5782065,47.0425147 46.1864233,45.6504074 45.6673458,43.8257028 C43.1094492,36.0958429 35.6962114,30.5845714 27.5849829,30.5845714 C18.8318915,30.5845714 11.3480358,35.9316019 8.52104843,43.7784921 C8.26153385,44.831022 8.22566692,45.5720861 8.43340487,46.0400528 Z M6.6048228,43.197388 C9.58325624,34.8071958 17.6381391,28.5845714 27.5849829,28.5845714 C36.7325824,28.5845714 44.7937094,34.8193732 47.5660877,43.197388 C48.1409486,45.2112363 47.9095129,49.0425147 43.5698667,49.0425147 L11.600099,49.0425147 C5.43717699,49.0425147 6.10897851,45.1482463 6.6048228,43.197388 Z" id="Shape"></path>
        </g>
    </g>
</svg>