<?xml version="1.0" standalone="no"?><!DOCTYPE svg PUBLIC "-//W3C//DTD SVG 1.1//EN" "http://www.w3.org/Graphics/SVG/1.1/DTD/svg11.dtd"><svg t="1543559943646" class="icon" style="" viewBox="0 0 1024 1024" version="1.1" xmlns="http://www.w3.org/2000/svg" p-id="2533" data-darkreader-inline-fill="" xmlns:xlink="http://www.w3.org/1999/xlink" width="200" height="200"><defs><style type="text/css">[data-darkreader-inline-fill] { fill: var(--darkreader-inline-fill)  !important; }
</style></defs><path d="M512 191.999994C334.720006 191.999994 192.00001 334.71999 192.00001 511.999984v283.039991h479.999985V527.999984c0-26.559999 21.407999-47.999999 47.999999-47.999999s47.999999 21.439999 47.999998 47.999999V671.999979h63.999998v-159.999995c0-177.279994-142.719996-319.99999-319.99999-319.99999z" fill="#E6001F" p-id="2534" data-darkreader-inline-fill="" style="--darkreader-inline-fill:#c40d25;"></path><path d="M847.99999 687.999979A47.999999 47.999999 0 0 1 799.999991 735.999977a47.999999 47.999999 0 0 1-47.999998-47.999998A47.999999 47.999999 0 0 1 799.999991 639.99998a47.999999 47.999999 0 0 1 47.999999 47.999999zM192.00001 735.999977h479.999985c17.727999 0 31.999999 14.272 31.999999 31.999999v63.999998c0 17.727999-14.272 31.999999-31.999999 31.999999H192.00001c-17.727999 0-31.999999-14.272-31.999999-31.999999v-63.999998c0-17.727999 14.272-31.999999 31.999999-31.999999z" fill="#C7C6CE" p-id="2535" data-darkreader-inline-fill="" style="--darkreader-inline-fill:#2d3139;"></path><path d="M510.656 221.727993a288.639991 288.639991 0 0 0-288.959991 288.863991h31.999999a255.999992 255.999992 0 0 1 256.959992-256.863992v-31.999999z" fill="#990012" p-id="2536" data-darkreader-inline-fill="" style="--darkreader-inline-fill:#960d1d;"></path></svg>