<?xml version="1.0" encoding="UTF-8"?>
<svg width="54px" height="54px" viewBox="0 0 54 54" version="1.1" xmlns="http://www.w3.org/2000/svg" xmlns:xlink="http://www.w3.org/1999/xlink">
    <!-- Generator: Sketch 52.2 (67145) - http://www.bohemiancoding.com/sketch -->
    <title>Timecard-top</title>
    <desc>Created with Sketch.</desc>
    <g id="Timecard-top" stroke="none" stroke-width="1" fill="none" fill-rule="evenodd">
        <g id="Group-47" fill="#53A600" fill-rule="nonzero">
            <g id="Group-13" transform="translate(4.000000, 5.500000)">
                <path d="M20,7.02145465 C20,6.45732082 20.4477153,6 21,6 C21.5522847,6 22,6.45732082 22,7.02145465 L22,17.9785453 C22,18.5426792 21.5522847,19 21,19 C20.4477153,19 20,18.5426792 20,17.9785453 L20,7.02145465 Z" id="Stroke-1"></path>
                <path d="M20.071556,23.6814711 C20.2768275,23.1255954 20.858832,22.8553993 21.3714996,23.0779712 C21.8841671,23.3005431 22.1333609,23.9315997 21.9280895,24.4874754 L17.928444,35.3185289 C17.7231725,35.8744046 17.141168,36.1446007 16.6285004,35.9220288 C16.1158329,35.6994569 15.8666391,35.0684003 16.0719105,34.5125246 L20.071556,23.6814711 Z" id="Stroke-2"></path>
                <path d="M22.5,21.5002929 C22.5,20.6717927 21.8282073,20 20.9997071,20 C20.171391,20 19.5,20.6716084 19.5,21.5002929 C19.5,22.3284459 20.1714454,23 20.9997071,23 C21.828153,23 22.5,22.3282617 22.5,21.5002929 Z M24.5,21.5002929 C24.5,23.4329037 22.93265,25 20.9997071,25 C19.0668034,25 17.5,23.4329429 17.5,21.5002929 C17.5,19.5671838 19.0666766,18 20.9997071,18 C22.9327768,18 24.5,19.5672232 24.5,21.5002929 Z" id="Stroke-3"></path>
                <path d="M40.9002483,12.3625502 C41.1462938,12.8867314 40.9215129,13.5114491 40.3981861,13.7578963 C39.8748594,14.0043434 39.2511601,13.7791955 39.0051146,13.2550143 C35.8349205,6.50115543 29.0479227,2.09756098 21.4649523,2.09756098 C10.766749,2.09756098 2.09414168,10.7843288 2.09414168,21.5 C2.09414168,32.2156712 10.766749,40.902439 21.4649523,40.902439 C22.0432335,40.902439 22.5120231,41.371994 22.5120231,41.9512195 C22.5120231,42.530445 22.0432335,43 21.4649523,43 C9.61018648,43 0,33.3741221 0,21.5 C0,9.62587788 9.61018648,0 21.4649523,0 C29.8669586,0 37.387927,4.87981512 40.9002483,12.3625502 Z" id="Oval"></path>
                <path d="M40.8554414,24 C40.8554414,21.8427364 39.1236691,20.1038026 37,20.1038026 C34.8763309,20.1038026 33.1445586,21.8427364 33.1445586,24 C33.1445586,26.1572636 34.8763309,27.8961974 37,27.8961974 C39.1236691,27.8961974 40.8554414,26.1572636 40.8554414,24 Z M43,24 C43,27.3083255 40.3194108,30 37,30 C33.6805892,30 31,27.3083255 31,24 C31,20.6916745 33.6805892,18 37,18 C40.3194108,18 43,20.6916745 43,24 Z" id="Stroke-7"></path>
                <path d="M47,38.2801273 C47,38.8893806 46.9418692,39.5020789 46.8303932,40.1290963 C46.740789,40.6330917 46.30531,41 45.7967282,41 L28.2027002,41 C27.6937093,41 27.2580037,40.6325155 27.1688448,40.1280217 C27.0579055,39.5002866 27,38.8883004 27,38.2801273 C27,32.6080565 31.4713763,28 36.9997142,28 C42.5281399,28 47,32.6081486 47,38.2801273 Z M44.8998173,38.2801273 C44.8998173,33.7649634 41.3571409,30.1143172 36.9997142,30.1143172 C32.6424178,30.1143172 29.1001827,33.7648307 29.1001827,38.2801273 C29.1001827,38.4799465 29.1082416,38.6815356 29.1241845,38.8856828 L44.8757757,38.8856828 C44.8917458,38.68169 44.8998173,38.48008 44.8998173,38.2801273 Z" id="Stroke-11"></path>
            </g>
        </g>
    </g>
</svg>